<svg width="20" height="21" viewBox="0 0 20 21" fill="none" xmlns="http://www.w3.org/2000/svg">
<path d="M17.7083 8.12494C15.7833 5.09994 12.9666 3.35828 9.99996 3.35828C8.51663 3.35828 7.07496 3.79161 5.75829 4.59994C4.44163 5.41661 3.25829 6.60828 2.29163 8.12494C1.45829 9.43328 1.45829 11.5583 2.29163 12.8666C4.21663 15.8999 7.03329 17.6333 9.99996 17.6333C11.4833 17.6333 12.925 17.1999 14.2416 16.3916C15.5583 15.5749 16.7416 14.3833 17.7083 12.8666C18.5416 11.5666 18.5416 9.43328 17.7083 8.12494ZM9.99996 13.8666C8.13329 13.8666 6.63329 12.3583 6.63329 10.4999C6.63329 8.64161 8.13329 7.13328 9.99996 7.13328C11.8666 7.13328 13.3666 8.64161 13.3666 10.4999C13.3666 12.3583 11.8666 13.8666 9.99996 13.8666Z" fill="white"/>
<path d="M10 8.1167C8.69167 8.1167 7.625 9.18337 7.625 10.5C7.625 11.8084 8.69167 12.875 10 12.875C11.3083 12.875 12.3833 11.8084 12.3833 10.5C12.3833 9.1917 11.3083 8.1167 10 8.1167Z" fill="white"/>
</svg>
