<svg width="32" height="33" viewBox="0 0 32 33" fill="none" xmlns="http://www.w3.org/2000/svg">
<path d="M22.6666 5.16667H9.33329C5.33329 5.16667 2.66663 7.16667 2.66663 11.8333V21.1667C2.66663 25.8333 5.33329 27.8333 9.33329 27.8333H22.6666C26.6666 27.8333 29.3333 25.8333 29.3333 21.1667V11.8333C29.3333 7.16667 26.6666 5.16667 22.6666 5.16667ZM23.2933 13.2867L19.12 16.62C18.24 17.3267 17.12 17.6733 16 17.6733C14.88 17.6733 13.7466 17.3267 12.88 16.62L8.70663 13.2867C8.27996 12.94 8.21329 12.3 8.54663 11.8733C8.89329 11.4467 9.51996 11.3667 9.94663 11.7133L14.12 15.0467C15.1333 15.86 16.8533 15.86 17.8666 15.0467L22.04 11.7133C22.4666 11.3667 23.1066 11.4333 23.44 11.8733C23.7866 12.3 23.72 12.94 23.2933 13.2867Z" fill="#7562E0"/>
</svg>
