<svg width="32" height="33" viewBox="0 0 32 33" fill="none" xmlns="http://www.w3.org/2000/svg">
<path d="M21.5866 3.16667H10.4133C5.55996 3.16667 2.66663 6.06 2.66663 10.9133V22.0733C2.66663 26.94 5.55996 29.8333 10.4133 29.8333H21.5733C26.4266 29.8333 29.32 26.94 29.32 22.0867V10.9133C29.3333 6.06 26.44 3.16667 21.5866 3.16667ZM16 21.6733C13.1466 21.6733 10.8266 19.3533 10.8266 16.5C10.8266 13.6467 13.1466 11.3267 16 11.3267C18.8533 11.3267 21.1733 13.6467 21.1733 16.5C21.1733 19.3533 18.8533 21.6733 16 21.6733ZM23.8933 9.67334C23.8266 9.83334 23.7333 9.98001 23.6133 10.1133C23.48 10.2333 23.3333 10.3267 23.1733 10.3933C23.0133 10.46 22.84 10.5 22.6666 10.5C22.3066 10.5 21.9733 10.3667 21.72 10.1133C21.6 9.98001 21.5066 9.83334 21.44 9.67334C21.3733 9.51334 21.3333 9.34001 21.3333 9.16667C21.3333 8.99334 21.3733 8.82001 21.44 8.66001C21.5066 8.48667 21.6 8.35334 21.72 8.22001C22.0266 7.91334 22.4933 7.76667 22.92 7.86001C23.0133 7.87334 23.0933 7.90001 23.1733 7.94001C23.2533 7.96667 23.3333 8.00667 23.4133 8.06001C23.48 8.10001 23.5466 8.16667 23.6133 8.22001C23.7333 8.35334 23.8266 8.48667 23.8933 8.66001C23.96 8.82001 24 8.99334 24 9.16667C24 9.34001 23.96 9.51334 23.8933 9.67334Z" fill="#7562E0"/>
</svg>
