<svg width="32" height="33" viewBox="0 0 32 33" fill="none" xmlns="http://www.w3.org/2000/svg">
<path d="M29.3333 22.0867C29.3333 26.94 26.44 29.8333 21.5866 29.8333H20C19.2666 29.8333 18.6666 29.2333 18.6666 28.5V20.8067C18.6666 20.4467 18.9599 20.14 19.3199 20.14L21.6666 20.1C21.8533 20.0867 22.0133 19.9534 22.0533 19.7667L22.52 17.22C22.56 16.98 22.3733 16.7533 22.12 16.7533L19.2799 16.7933C18.9066 16.7933 18.6133 16.5 18.6 16.14L18.5466 12.8733C18.5466 12.66 18.7199 12.4734 18.9466 12.4734L22.1466 12.42C22.3733 12.42 22.5466 12.2467 22.5466 12.02L22.4933 8.81999C22.4933 8.59333 22.32 8.42001 22.0933 8.42001L18.4933 8.47335C16.28 8.51335 14.52 10.3267 14.56 12.54L14.6266 16.2067C14.64 16.58 14.3466 16.8734 13.9733 16.8867L12.3733 16.9133C12.1466 16.9133 11.9733 17.0867 11.9733 17.3133L12.0133 19.8467C12.0133 20.0734 12.1866 20.2467 12.4133 20.2467L14.0133 20.22C14.3866 20.22 14.6799 20.5133 14.6933 20.8733L14.8133 28.4734C14.8266 29.22 14.2266 29.8333 13.4799 29.8333H10.4133C5.55996 29.8333 2.66663 26.94 2.66663 22.0733V10.9133C2.66663 6.06 5.55996 3.16667 10.4133 3.16667H21.5866C26.44 3.16667 29.3333 6.06 29.3333 10.9133V22.0867V22.0867Z" fill="#7562E0"/>
</svg>
